<?xml version="1.0" encoding="UTF-8" standalone="no"?>
<svg
   xmlns:dc="http://purl.org/dc/elements/1.1/"
   xmlns:cc="http://creativecommons.org/ns#"
   xmlns:rdf="http://www.w3.org/1999/02/22-rdf-syntax-ns#"
   xmlns:svg="http://www.w3.org/2000/svg"
   xmlns="http://www.w3.org/2000/svg"
   xmlns:xlink="http://www.w3.org/1999/xlink"
   xmlns:sodipodi="http://sodipodi.sourceforge.net/DTD/sodipodi-0.dtd"
   xmlns:inkscape="http://www.inkscape.org/namespaces/inkscape"
   width="75mm"
   height="75mm"
   viewBox="0 0 75 75"
   version="1.1"
   id="svg9088"
   inkscape:version="1.0.1 (3bc2e813f5, 2020-09-07)"
   sodipodi:docname="Pion2.svg">
  <defs
     id="defs9082">
    <linearGradient
       xlink:href="#grad1"
       id="grad2"
       x1="242.60118"
       y1="175.32973"
       x2="242.60118"
       y2="196.88976"
       gradientTransform="scale(0.92677991,1.0790048)"
       gradientUnits="userSpaceOnUse" />
    <linearGradient
       id="grad1">
      <stop
         offset="0.0000%"
         stop-color="#d0ff78"
         stop-opacity="1.0000"
         id="stop846" />
      <stop
         offset="43.0000%"
         stop-color="#bcf967"
         stop-opacity="1.0000"
         id="stop848" />
      <stop
         offset="58.0000%"
         stop-color="#71df28"
         stop-opacity="1.0000"
         id="stop850" />
      <stop
         offset="100.0000%"
         stop-color="#42cf00"
         stop-opacity="1.0000"
         id="stop852" />
    </linearGradient>
    <linearGradient
       xlink:href="#grad1"
       id="grad4"
       x1="232.8743"
       y1="173.61295"
       x2="232.8743"
       y2="189.66718"
       gradientTransform="scale(0.90070953,1.1102358)"
       gradientUnits="userSpaceOnUse" />
    <linearGradient
       xlink:href="#grad5"
       id="grad6"
       x1="133.64149"
       y1="81.550713"
       x2="133.64149"
       y2="158.15547"
       gradientTransform="scale(0.82416165,1.2133542)"
       gradientUnits="userSpaceOnUse" />
    <linearGradient
       id="grad5">
      <stop
         offset="0.0000%"
         stop-color="#ffef61"
         stop-opacity="1.0000"
         id="stop877" />
      <stop
         offset="23.0000%"
         stop-color="#ffba0d"
         stop-opacity="1.0000"
         id="stop879" />
      <stop
         offset="100.0000%"
         stop-color="#ffb300"
         stop-opacity="1.0000"
         id="stop881" />
    </linearGradient>
    <linearGradient
       xlink:href="#grad7"
       id="grad8"
       x1="126.30768"
       y1="105.46841"
       x2="126.30768"
       y2="188.79617"
       gradientTransform="scale(0.98699249,1.0131789)"
       gradientUnits="userSpaceOnUse" />
    <linearGradient
       id="grad7">
      <stop
         offset="0.0000%"
         stop-color="#009900"
         stop-opacity="1.0000"
         id="stop893" />
      <stop
         offset="28.0000%"
         stop-color="#00a900"
         stop-opacity="1.0000"
         id="stop895" />
      <stop
         offset="74.0000%"
         stop-color="#00d200"
         stop-opacity="1.0000"
         id="stop897" />
      <stop
         offset="100.0000%"
         stop-color="#00d600"
         stop-opacity="1.0000"
         id="stop899" />
    </linearGradient>
    <linearGradient
       xlink:href="#grad9"
       id="grad10"
       x1="109.52946"
       y1="128.50656"
       x2="109.52946"
       y2="249.92435"
       gradientTransform="scale(1.1036811,0.90605881)"
       gradientUnits="userSpaceOnUse" />
    <linearGradient
       id="grad9">
      <stop
         offset="0.0000%"
         stop-color="#00ae00"
         stop-opacity="1.0000"
         id="stop907" />
      <stop
         offset="52.0000%"
         stop-color="#4bdb00"
         stop-opacity="1.0000"
         id="stop909" />
      <stop
         offset="100.0000%"
         stop-color="#52e000"
         stop-opacity="1.0000"
         id="stop911" />
    </linearGradient>
    <linearGradient
       xlink:href="#grad11"
       id="grad12"
       x1="193.0274"
       y1="133.98331"
       x2="193.0274"
       y2="179.28596"
       gradientTransform="scale(0.87607663,1.1414527)"
       gradientUnits="userSpaceOnUse" />
    <linearGradient
       id="grad11">
      <stop
         offset="0%"
         stop-color="#39db39"
         stop-opacity="1.0000"
         id="stop919" />
      <stop
         offset="100%"
         stop-color="#00ae00"
         stop-opacity="1.0000"
         id="stop921" />
    </linearGradient>
    <linearGradient
       xlink:href="#grad13"
       id="grad14"
       x1="120.51523"
       y1="121.21211"
       x2="120.51523"
       y2="159.40971"
       gradientTransform="scale(1.0476178,0.95454657)"
       gradientUnits="userSpaceOnUse" />
    <linearGradient
       id="grad13">
      <stop
         offset="0%"
         stop-color="#b4ff5e"
         stop-opacity="1.0000"
         id="stop937" />
      <stop
         offset="100%"
         stop-color="#41c200"
         stop-opacity="1.0000"
         id="stop939" />
    </linearGradient>
    <linearGradient
       xlink:href="#grad15"
       id="grad16"
       x1="113.09681"
       y1="222.66383"
       x2="113.09681"
       y2="295.49075"
       gradientTransform="scale(1.3566987,0.73708333)"
       gradientUnits="userSpaceOnUse" />
    <linearGradient
       id="grad15">
      <stop
         offset="0.0000%"
         stop-color="#beff69"
         stop-opacity="1.0000"
         id="stop951" />
      <stop
         offset="32.0000%"
         stop-color="#bafe66"
         stop-opacity="1.0000"
         id="stop953" />
      <stop
         offset="57.0000%"
         stop-color="#59dc1c"
         stop-opacity="1.0000"
         id="stop955" />
      <stop
         offset="100.0000%"
         stop-color="#34cf00"
         stop-opacity="1.0000"
         id="stop957" />
    </linearGradient>
    <linearGradient
       xlink:href="#grad17"
       id="grad18"
       x1="177.09721"
       y1="144.24109"
       x2="177.09721"
       y2="159.11235"
       gradientTransform="scale(0.77694838,1.2870868)"
       gradientUnits="userSpaceOnUse" />
    <linearGradient
       id="grad17">
      <stop
         offset="0%"
         stop-color="#d4ff9c"
         stop-opacity="1.0000"
         id="stop971" />
      <stop
         offset="100%"
         stop-color="#23d100"
         stop-opacity="1.0000"
         id="stop973" />
    </linearGradient>
    <linearGradient
       xlink:href="#grad19"
       id="grad20"
       x1="212.09174"
       y1="167.37189"
       x2="212.09174"
       y2="195.3324"
       gradientTransform="scale(0.99045058,1.0096415)"
       gradientUnits="userSpaceOnUse" />
    <linearGradient
       id="grad19">
      <stop
         offset="0.0000%"
         stop-color="#9090f5"
         stop-opacity="1.0000"
         id="stop1014" />
      <stop
         offset="58.0000%"
         stop-color="#d5d4fd"
         stop-opacity="1.0000"
         id="stop1016" />
      <stop
         offset="100.0000%"
         stop-color="#e7e5ff"
         stop-opacity="1.0000"
         id="stop1018" />
    </linearGradient>
    <linearGradient
       xlink:href="#grad21"
       id="grad22"
       x1="27.721226"
       y1="83.782021"
       x2="27.721226"
       y2="175.10329"
       gradientTransform="scale(0.91535638,1.0924707)"
       gradientUnits="userSpaceOnUse" />
    <linearGradient
       id="grad21">
      <stop
         offset="0%"
         stop-color="#fff8d4"
         stop-opacity="1.0000"
         id="stop1036" />
      <stop
         offset="100%"
         stop-color="#ffc800"
         stop-opacity="1.0000"
         id="stop1038" />
    </linearGradient>
    <linearGradient
       xlink:href="#grad23"
       id="grad24"
       x1="12.946993"
       y1="154.45317"
       x2="12.946993"
       y2="225.21693"
       gradientTransform="scale(2.0570799,0.48612598)"
       gradientUnits="userSpaceOnUse" />
    <linearGradient
       id="grad23">
      <stop
         offset="0%"
         stop-color="#feffba"
         stop-opacity="1.0000"
         id="stop1046" />
      <stop
         offset="100%"
         stop-color="#ffd829"
         stop-opacity="1.0000"
         id="stop1048" />
    </linearGradient>
    <linearGradient
       xlink:href="#grad25"
       id="grad26"
       x1="45.537746"
       y1="136.14056"
       x2="45.537746"
       y2="157.70062"
       gradientTransform="scale(0.92677844,1.0790065)"
       gradientUnits="userSpaceOnUse" />
    <linearGradient
       id="grad25">
      <stop
         offset="0.0000%"
         stop-color="#fff278"
         stop-opacity="1.0000"
         id="stop1069" />
      <stop
         offset="42.0000%"
         stop-color="#fcec71"
         stop-opacity="1.0000"
         id="stop1071" />
      <stop
         offset="100.0000%"
         stop-color="#cf8700"
         stop-opacity="1.0000"
         id="stop1073" />
    </linearGradient>
    <linearGradient
       xlink:href="#grad27"
       id="grad28"
       x1="30.106958"
       y1="135.52682"
       x2="30.106958"
       y2="151.58101"
       gradientTransform="scale(0.90071206,1.1102327)"
       gradientUnits="userSpaceOnUse" />
    <linearGradient
       id="grad27">
      <stop
         offset="0.0000%"
         stop-color="#fdff78"
         stop-opacity="1.0000"
         id="stop1081" />
      <stop
         offset="36.0000%"
         stop-color="#faf870"
         stop-opacity="1.0000"
         id="stop1083" />
      <stop
         offset="100.0000%"
         stop-color="#cf9b00"
         stop-opacity="1.0000"
         id="stop1085" />
    </linearGradient>
    <linearGradient
       xlink:href="#grad29"
       id="grad30"
       x1="181.63875"
       y1="253.68311"
       x2="181.63875"
       y2="265.78674"
       gradientTransform="scale(1.2223627,0.81808778)"
       gradientUnits="userSpaceOnUse" />
    <linearGradient
       id="grad29">
      <stop
         offset="0%"
         stop-color="#d8c7ff"
         stop-opacity="1.0000"
         id="stop1095" />
      <stop
         offset="100%"
         stop-color="#f4e8ff"
         stop-opacity="1.0000"
         id="stop1097" />
    </linearGradient>
    <linearGradient
       xlink:href="#grad1"
       id="linearGradient2460"
       x1="0"
       y1="0"
       x2="0"
       y2="1"
       gradientTransform="rotate(16,0.5,0.5)"
       gradientUnits="objectBoundingBox" />
    <linearGradient
       xlink:href="#grad1"
       id="linearGradient2469"
       x1="0"
       y1="0"
       x2="0"
       y2="1"
       gradientTransform="rotate(-173,0.5,0.5)"
       gradientUnits="objectBoundingBox" />
    <linearGradient
       xlink:href="#grad5"
       id="linearGradient2483"
       x1="0"
       y1="0"
       x2="0"
       y2="1"
       gradientTransform="rotate(-6,0.5,0.5)"
       gradientUnits="objectBoundingBox" />
    <linearGradient
       xlink:href="#grad7"
       id="linearGradient2499"
       x1="0"
       y1="0"
       x2="0"
       y2="1"
       gradientTransform="rotate(-70,0.5,0.5)"
       gradientUnits="objectBoundingBox" />
    <linearGradient
       xlink:href="#grad9"
       id="linearGradient2511"
       x1="0"
       y1="0"
       x2="0"
       y2="1"
       gradientTransform="rotate(39,0.5,0.5)"
       gradientUnits="objectBoundingBox" />
    <linearGradient
       xlink:href="#grad11"
       id="linearGradient2521"
       x1="0"
       y1="0"
       x2="0"
       y2="1"
       gradientTransform="rotate(35,0.5,0.5)"
       gradientUnits="objectBoundingBox" />
    <linearGradient
       xlink:href="#grad13"
       id="linearGradient2535"
       x1="0"
       y1="0"
       x2="0"
       y2="1"
       gradientTransform="rotate(28,0.5,0.5)"
       gradientUnits="objectBoundingBox" />
    <linearGradient
       xlink:href="#grad15"
       id="linearGradient2551"
       x1="0"
       y1="0"
       x2="0"
       y2="1"
       gradientTransform="rotate(13,0.5,0.5)"
       gradientUnits="objectBoundingBox" />
    <linearGradient
       xlink:href="#grad17"
       id="linearGradient2564"
       x1="0"
       y1="0"
       x2="0"
       y2="1"
       gradientTransform="rotate(175,0.5,0.5)"
       gradientUnits="objectBoundingBox" />
    <linearGradient
       xlink:href="#grad19"
       id="linearGradient2594"
       x1="0"
       y1="0"
       x2="0"
       y2="1"
       gradientTransform="rotate(11,0.5,0.5)"
       gradientUnits="objectBoundingBox" />
    <linearGradient
       xlink:href="#grad21"
       id="linearGradient2609"
       x1="0"
       y1="0"
       x2="0"
       y2="1"
       gradientTransform="rotate(-8,0.5,0.5)"
       gradientUnits="objectBoundingBox" />
    <linearGradient
       xlink:href="#grad23"
       id="linearGradient2619"
       x1="0"
       y1="0"
       x2="0"
       y2="1"
       gradientTransform="rotate(31,0.5,0.5)"
       gradientUnits="objectBoundingBox" />
    <linearGradient
       xlink:href="#grad25"
       id="linearGradient2638"
       x1="0"
       y1="0"
       x2="0"
       y2="1"
       gradientTransform="rotate(16,0.5,0.5)"
       gradientUnits="objectBoundingBox" />
    <linearGradient
       xlink:href="#grad27"
       id="linearGradient2650"
       x1="0"
       y1="0"
       x2="0"
       y2="1"
       gradientTransform="rotate(-173,0.5,0.5)"
       gradientUnits="objectBoundingBox" />
    <linearGradient
       xlink:href="#grad29"
       id="linearGradient2661"
       x1="0"
       y1="0"
       x2="0"
       y2="1"
       gradientTransform="rotate(4,0.5,0.5)"
       gradientUnits="objectBoundingBox" />
    <linearGradient
       id="grad89"
       gradientTransform="scale(1.2442588,0.80369133)"
       x1="280.58478"
       y1="113.34746"
       x2="359.81848"
       y2="113.34746"
       gradientUnits="userSpaceOnUse">
      <stop
         offset="0%"
         stop-color="#0080f8"
         stop-opacity="1.0000"
         id="stop1695" />
      <stop
         offset="100%"
         stop-color="#005ce0"
         stop-opacity="1.0000"
         id="stop1697" />
    </linearGradient>
    <linearGradient
       id="linearGradient3108">
      <stop
         offset="0%"
         stop-color="#0080f8"
         stop-opacity="1.0000"
         id="stop3104" />
      <stop
         offset="100%"
         stop-color="#005ce0"
         stop-opacity="1.0000"
         id="stop3106" />
    </linearGradient>
  </defs>
  <sodipodi:namedview
     id="base"
     pagecolor="#ffffff"
     bordercolor="#666666"
     borderopacity="1.0"
     inkscape:pageopacity="0.0"
     inkscape:pageshadow="2"
     inkscape:zoom="0.35"
     inkscape:cx="400"
     inkscape:cy="560"
     inkscape:document-units="mm"
     inkscape:current-layer="layer1"
     inkscape:document-rotation="0"
     showgrid="false"
     inkscape:window-width="1267"
     inkscape:window-height="1040"
     inkscape:window-x="78"
     inkscape:window-y="0"
     inkscape:window-maximized="0" />
  <metadata
     id="metadata9085">
    <rdf:RDF>
      <cc:Work
         rdf:about="">
        <dc:format>image/svg+xml</dc:format>
        <dc:type
           rdf:resource="http://purl.org/dc/dcmitype/StillImage" />
        <dc:title></dc:title>
      </cc:Work>
    </rdf:RDF>
  </metadata>
  <g
     inkscape:label="Layer 1"
     inkscape:groupmode="layer"
     id="layer1">
    <g
       id="Layer1022"
       transform="matrix(0.35104403,0,0,0.35104403,-115.10815,-21.710193)">
      <path
         d="M 380.1849,104.6935 C 407.1134,89.2278 432.0387,85.616 457.6583,84.6289 l -10.2647,112.2243 -109.8682,-2.6827 c -0.5898,-28.9108 21.8485,-60.3099 42.6595,-89.477 z"
         style="fill:#f8e000;fill-rule:evenodd"
         id="path1685" />
      <path
         d="m 380.1849,107.4049 c 18.6862,-10.6774 38.0492,-15.285 57.6846,-17.6484 14.3425,-1.7263 15.5984,-2.8354 10.3084,11.3968 -4.194,11.2839 -3.6335,23.9955 -9.3077,34.1897 -6.8048,12.2255 -10.8512,12.4979 -24.3115,13.1698 l -65.7555,7.6977 c 6.4562,-15.0936 17.0802,-30.8199 31.3817,-48.8056 z"
         style="fill:#101a14;fill-rule:evenodd"
         id="path1687" />
      <path
         d="m 507.1535,192.3755 -4.8814,-108.0868 42.181,35.1195 v 70.1806 z"
         style="fill:#fff7f7;fill-rule:evenodd"
         id="path1689" />
      <path
         d="m 393.21,222.7212 31.673,3.5743 c -2.7008,4.8997 -2.4121,10.3628 -5.1292,12.8448 -12.4299,11.3542 -20.4764,8.3762 -26.5438,-16.4191 z"
         style="fill:#101a14;fill-rule:evenodd"
         id="path1691" />
      <path
         d="m 379.7974,224.1509 15.3517,-1.1159 c 0.6328,10.9016 4.9689,19.8216 12.9278,23.0981 l -18.0989,-1.7872 c -3.0976,-2.9182 -8.3764,-10.6032 -10.1806,-20.195 z"
         style="fill:#4c4c4c;fill-rule:evenodd"
         id="path1693" />
      <defs
         id="defs1700">
        <linearGradient
           id="linearGradient10552">
          <stop
             offset="0%"
             stop-color="#0080f8"
             stop-opacity="1.0000"
             id="stop10548" />
          <stop
             offset="100%"
             stop-color="#005ce0"
             stop-opacity="1.0000"
             id="stop10550" />
        </linearGradient>
      </defs>
      <path
         d="m 377.733,110.6183 c 18.1022,-10.3437 37.3505,-15.8919 56.3722,-18.1813 13.8941,-1.6722 16.0914,-3.8312 10.9669,9.9561 -4.0629,10.9312 -3.52,21.6188 -9.0168,31.4943 -6.5921,11.8433 -10.5121,12.1072 -23.5517,12.7582 l -63.2101,7.9994 c 6.2544,-14.6219 14.5851,-26.6031 28.4395,-44.0267 z"
         style="fill:url(#grad89);stroke:#1b1918;stroke-width:0.216;stroke-linecap:butt;stroke-linejoin:miter;stroke-dasharray:none"
         id="path1702" />
      <path
         d="m 503.5716,83.6431 -31.7289,9.4473 36.663,99.8059 z"
         style="fill:#d40000;fill-rule:evenodd"
         id="path1704" />
      <path
         d="M 496.395,104.1512 455.2066,88.4249 c -10.8726,36.8528 -11.0206,79.7383 -8.3357,112.253 l 25.9879,-1.6268 c 7.217,-11.9797 14.1071,-13.8368 22.6316,-5.571 l 11.2535,0.0909 c 0.1687,-29.6909 -0.0442,-61.177 -10.3489,-89.4198 z"
         style="fill:#f89800;fill-rule:evenodd"
         id="path1706" />
      <path
         d="M 497.3757,100.8975 457.6583,84.6289 c -6.8231,38.3465 -7.8975,73.8775 -7.0822,112.2243 l 20.3213,-2.6827 c 4.7401,-12.6534 15.8544,-15.1841 28.4397,-7.592 8.7059,-17.9568 3.7203,-50.3602 -1.9614,-85.681 z"
         style="fill:#f8e000;fill-rule:evenodd"
         id="path1708" />
      <path
         d="m 453.7356,150.2454 10.7401,-0.4365 8.8734,-16.9166 26.4783,4.3383 -3.9227,-26.0297 -36.285,-16.2686 c -7.1928,18.5284 -9.1539,38.2315 -5.8841,55.3131 z"
         style="fill:#09120a;fill-rule:evenodd"
         id="path1710" />
      <path
         d="m 361.0617,158.3797 27.4589,-1.6269 c -2.9421,4.6996 -7.8456,10.4839 -6.8647,15.184 h 17.1618 l 0.4903,23.6417 -53.4468,-1.9503 -0.4904,-19.5222 11.7682,-1.0846 c -3.1093,-4.8806 0.9744,-9.7611 3.9227,-14.6417 z"
         style="fill:#f89800;fill-rule:evenodd"
         id="path1712" />
      <path
         d="m 347.3322,177.902 48.5435,-1.4567 0.9807,14.6671 -49.0339,-0.7252 z"
         style="fill:#c4c3c1;fill-rule:evenodd"
         id="path1714" />
      <path
         d="m 349.7839,180.6134 42.1691,-1.6269 v 3.2537 l -42.1691,1.6269 z"
         style="fill:#222c27;fill-rule:evenodd"
         id="path1716" />
      <path
         d="m 349.2935,186.5785 42.1691,-1.6268 v 3.2537 l -42.1691,1.6268 z"
         style="fill:#16201b;fill-rule:evenodd"
         id="path1718" />
      <path
         d="m 336.5447,193.0859 113.2682,3.2537 v 4.3383 l -116.7005,-2.7114 z"
         style="fill:#f89800;fill-rule:evenodd"
         id="path1720" />
      <path
         d="m 331.6414,197.9665 141.7077,2.1691 c -0.8984,14.462 -3.8403,25.308 -11.2778,28.1989 -41.0249,1.446 -82.7037,-0.7231 -125.0362,-6.5075 -7.6821,-7.9536 -9.4799,-15.9071 -5.3937,-23.8605 z"
         style="fill:#f89800;fill-rule:evenodd"
         id="path1722" />
      <path
         d="m 405.6824,190.3745 31.3817,0.5423 1.471,-25.4874 c -9.3165,-3.2536 -20.4309,0.181 -32.3623,7.0497 z"
         style="fill:#f89800;fill-rule:evenodd"
         id="path1724" />
      <path
         d="m 437.5544,163.8025 c -12.9129,1.0839 -24.8447,2.8912 -29.9106,9.7612 0.6539,12.6533 5.8842,18.0761 15.6908,16.2685 9.6451,-4.4276 20.2696,-11.4771 14.2198,-26.0297 z"
         style="fill:#16201b;fill-rule:evenodd"
         id="path1726" />
      <path
         d="m 469.4264,202.8471 c -1.5516,8.9481 -4.4933,17.0825 -15.2005,21.6914 l -52.4662,0.5423 c -3.6518,-7.2344 -0.2376,-16.4517 3.9227,-22.2337 z"
         style="fill:#f8b800;fill-rule:evenodd"
         id="path1728" />
      <path
         d="m 340.4674,207.7276 v 7.592 q 0,3.2537 2.9421,3.3801 l 50.0145,2.1484 q 2.942,0.1264 2.942,-3.1273 v -7.592 q 0,-3.2537 -2.942,-3.3801 l -50.0145,-2.1484 q -2.9421,-0.1264 -2.9421,3.1273 z"
         style="fill:#f8e000;fill-rule:evenodd"
         id="path1730" />
      <path
         d="m 343.8998,209.8351 v 4.7252 q 0,2.0251 2.4775,2.1024 l 42.1175,1.3157 q 2.4775,0.0774 2.4775,-1.9477 v -4.7251 q 0,-2.0251 -2.4775,-2.1025 l -42.1175,-1.3157 q -2.4775,-0.0773 -2.4775,1.9477 z"
         style="fill:#0d0d0d;fill-rule:evenodd;stroke:#1b1918;stroke-width:0.216;stroke-linecap:butt;stroke-linejoin:miter;stroke-dasharray:none"
         id="path1732" />
      <path
         d="m 410.831,208.8122 a 6.6196,7.592 0 0 1 6.6196,7.592 6.6196,7.592 0 1 1 -6.6196,-7.592 z"
         style="fill:#16201b;fill-rule:evenodd;stroke:#1b1918;stroke-width:0.216;stroke-linecap:butt;stroke-linejoin:miter;stroke-dasharray:none"
         id="path1734" />
      <path
         d="m 410.0955,209.8968 a 4.9034,5.6237 0 0 1 4.9034,5.6237 4.9034,5.6237 0 1 1 -4.9034,-5.6237 z"
         style="fill:#f7f7f7;fill-rule:evenodd;stroke:#1b1918;stroke-width:0.216;stroke-linecap:butt;stroke-linejoin:miter;stroke-dasharray:none"
         id="path1736" />
      <path
         d="m 335.3189,205.0162 a 5.1486,5.9049 0 0 1 5.1485,5.9049 5.1486,5.9049 0 1 1 -5.1485,-5.9049 z"
         style="fill:#101a14;fill-rule:evenodd;stroke:#1b1918;stroke-width:0.216;stroke-linecap:butt;stroke-linejoin:miter;stroke-dasharray:none"
         id="path1738" />
      <path
         d="m 334.5834,206.1008 a 3.9227,4.499 0 0 1 3.9227,4.4989 3.9227,4.499 0 1 1 -3.9227,-4.4989 z"
         style="fill:#fafafa;fill-rule:evenodd;stroke:#1b1918;stroke-width:0.216;stroke-linecap:butt;stroke-linejoin:miter;stroke-dasharray:none"
         id="path1740" />
      <path
         d="m 476.0344,197.4908 22.5974,15.45 -3.9021,-21.6487 c -8.6789,-5.4172 -18.3764,-3.2141 -18.6953,6.1987 z"
         style="fill:#4c4c4c;fill-rule:evenodd"
         id="path1742" />
      <path
         d="m 452.3904,225.7804 14.9203,-3.8413 c 1.7951,17.7047 7.1994,29.6293 14.1193,32.228 l -19.1823,-1.8605 c -6.3615,-5.2647 -7.7384,-15.6316 -9.8573,-26.5262 z"
         style="fill:#4c4c4c;fill-rule:evenodd"
         id="path1744" />
      <path
         d="m 482.1794,191.7436 a 15.1114,31.3137 0 0 1 15.1114,31.3136 15.1114,31.3137 0 1 1 -15.1114,-31.3136 z"
         style="fill:#0f0f0f;fill-rule:evenodd"
         id="path1746" />
      <path
         d="m 482.4591,202.6506 a 10.4422,21.6381 0 0 1 10.4422,21.6381 10.4422,21.6381 0 1 1 -10.4422,-21.6381 z"
         style="fill:#8f8f8f;fill-rule:evenodd"
         id="path1748" />
      <path
         d="m 482.4269,214.2613 a 6.9105,10.3792 0 0 1 6.9105,10.3792 6.9105,10.3792 0 1 1 -6.9105,-10.3792 z"
         style="fill:#4c4c4c;fill-rule:evenodd"
         id="path1750" />
      <path
         d="m 482.9358,220.5385 a 3.1625,4.7499 0 0 1 3.1625,4.7499 3.1625,4.7499 0 1 1 -3.1625,-4.7499 z"
         style="fill:#0d0d0d;fill-rule:evenodd"
         id="path1752" />
      <path
         d="m 528.357,192.1405 2.8989,-10.6866 7.0862,-1.4249 5.1535,11.3991 -0.6442,13.8926 -3.221,0.9137 c -0.975,-3.2093 -2.22,-17.4337 -11.2734,-14.0939 z"
         style="fill:#292929;fill-rule:evenodd"
         id="path1754" />
      <path
         d="m 519.9825,192.1405 c -4.107,13.6551 -4.3753,27.3101 0.9663,40.9655 l 14.1723,0.3562 c 5.2338,-14.3677 6.2536,-27.4294 0.3221,-42.7466 z"
         style="fill:#414c47;fill-rule:evenodd"
         id="path1756" />
      <path
         d="m 495.0292,194.3125 37.8833,-6.9231 -10.4256,21.769 -23.7967,4.0489 z"
         style="fill:#0c160f;fill-rule:evenodd;stroke:#1b1918;stroke-width:0.216;stroke-linecap:butt;stroke-linejoin:miter;stroke-dasharray:none"
         id="path1758" />
      <path
         d="m 533.5106,196.7714 a 4.1873,15.4956 0 0 1 4.1873,15.4956 4.1873,15.4956 0 1 1 -4.1873,-15.4956 z"
         style="fill:#7a7f7b;fill-rule:evenodd"
         id="path1760" />
      <path
         d="m 509.0631,191.6716 -4.2742,-106.6789 42.0926,29.7154 1.2143,72.195 z"
         style="fill:#c70000;fill-rule:evenodd"
         id="path1762" />
      <path
         d="m 456.9183,146.0216 6.2844,0.2674 10.1464,-17.6206 24.5687,5.0423 -3.2862,-21.1019 -33.7389,-14.8606 c -4.3275,18.5285 -5.0157,31.1919 -3.9744,48.2734 z"
         style="fill:#006ce0;fill-rule:evenodd;stroke:#1b1918;stroke-width:0.216;stroke-linecap:butt;stroke-linejoin:miter;stroke-dasharray:none"
         id="path1764" />
      <path
         d="m 456.3851,89.499 40.4153,14.0778 -0.6365,2.4636 -40.0971,-12.67 z"
         style="fill:#f89800;fill-rule:evenodd"
         id="path1766" />
      <path
         d="m 433.7271,166.5785 c -9.8211,0.8244 -18.8961,2.199 -22.749,7.424 0.4973,9.6237 4.4753,13.7481 11.9339,12.3733 7.3357,-3.3675 15.4163,-8.7291 10.8151,-19.7973 z"
         style="fill:#edffe8;fill-rule:evenodd"
         id="path1768" />
      <path
         d="m 446.5244,169.3944 58.5614,-12.6715 -1.9096,7.0397 -56.6518,11.2636 z"
         style="fill:#f89800;fill-rule:evenodd"
         id="path1770" />
      <path
         d="m 335.3318,171.5063 c 6.1442,0.912 11.8216,2.4325 14.2321,8.2124 -0.3112,10.6456 -2.7999,15.2079 -7.4661,13.6872 -4.5893,-3.7251 -9.6446,-9.6561 -6.766,-21.8996 z"
         style="fill:#16201b;fill-rule:evenodd"
         id="path1772" />
      <path
         d="m 337.1529,173.8419 c 4.6731,0.6935 8.9911,1.85 10.8244,6.246 -0.2366,8.0967 -2.1294,11.5666 -5.6784,10.41 -3.4904,-2.8332 -7.3354,-7.3441 -5.146,-16.656 z"
         style="fill:#edffe8;fill-rule:evenodd"
         id="path1774" />
      <path
         d="m 333.3621,196.6058 c 46.2431,3.1965 92.4863,2.1691 138.7296,3.2537 l -2.5461,2.9303 -139.6159,-1.3034 z"
         style="fill:#f8e000;fill-rule:evenodd"
         id="path1776" />
      <path
         d="M 390.0606,105.3329 431.884,92.6613 c -0.6368,-1.0839 -16.6615,37.1816 -35.5769,30.7379 -8.3804,-2.855 -28.2953,22.8289 -45.2635,31.9158 6.7362,-20.5722 30.6627,-49.092 39.017,-49.9821 z"
         style="fill:#61b3ff;fill-rule:evenodd"
         id="path1778" />
      <path
         d="m 438.2494,126.4521 17.823,-3.5199 v 4.9278 l -18.4596,3.5199 z"
         style="fill:#1a241e;fill-rule:evenodd"
         id="path1780" />
      <path
         d="m 453.5263,119.4123 v 19.0073 q 0,3.5199 3.1827,3.5199 h 10.1846 q 3.1827,0 3.1827,-3.5199 v -19.0073 q 0,-3.5198 -3.1827,-3.5198 H 456.709 q -3.1827,0 -3.1827,3.5198 z"
         style="fill:#09120a;fill-rule:evenodd"
         id="path1782" />
      <path
         d="m 471.9859,101.813 24.825,11.2636 1.273,19.7112 c -5.4105,-12.6715 -13.8446,-9.5037 -17.1069,-14.9595 -3.2622,-5.4557 -5.1719,-11.0875 -8.9911,-16.0153 z"
         style="fill:#61b3ff;fill-rule:evenodd"
         id="path1784" />
      <path
         d="m 338.9426,118.0043 v 19.0073 q 0,3.5198 1.8367,3.5198 h 5.8778 q 1.8367,0 1.8367,-3.5198 v -19.0073 q 0,-3.5199 -1.8367,-3.5199 h -5.8778 q -1.8367,0 -1.8367,3.5199 z"
         style="fill:#09120a;fill-rule:evenodd"
         id="path1786" />
      <path
         d="m 341.4899,130.4413 17.823,3.051 v 4.9278 l -18.4596,-3.2856 z"
         style="fill:#1a241e;fill-rule:evenodd"
         id="path1788" />
      <path
         d="m 533.9634,206.8755 a 3.3894,5.0908 0 0 1 3.3894,5.0907 3.3894,5.0908 0 1 1 -3.3894,-5.0907 z"
         style="fill:#4c4c4c;fill-rule:evenodd"
         id="path1790" />
      <path
         d="m 534.213,209.9543 a 1.5511,2.3297 0 0 1 1.5511,2.3297 1.5511,2.3297 0 1 1 -1.5511,-2.3297 z"
         style="fill:#0d0d0d;fill-rule:evenodd"
         id="path1792" />
    </g>
  </g>
</svg>
